# xmcd
#
# Track frame offsets: 
#        150
#        16813
#        28533
#        45412
#        59531
#        73424
#        90840
#        106150
#        119422
#        130402
#        145409
#        165548
#        179177
#        198062
#
# Disc length: 2824 seconds
#
# Revision: 0
# Processed by: cddbd v1.5.2PL0 Copyright (c) Steve Scherf et al.
# Submitted via: ExactAudioCopy v0.95b4
#
DISCID=c10b060e
DTITLE=Dianne Killen - Pattern of My Heart
DYEAR=2006
DGENRE=Country
TTITLE0=Lord, Grant Me Patience
TTITLE1=Nothing Between Us Tonight
TTITLE2=Every Time We Kiss
TTITLE3=If Only Love Had Left Me Blind
TTITLE4=Pattern of My Heart
TTITLE5=My Heart Will Prove You Wrong
TTITLE6=Brand New Lover
TTITLE7=One Less Light
TTITLE8=As Long As I Have You In My Heart
TTITLE9=Lovin' On Borrowed Time
TTITLE10=Tonight, I'm Gonna Fall In Love
TTITLE11=Give You What I Need
TTITLE12=The Way He Looks
TTITLE13=I Just Can't Find It In My Heart
EXTD=
EXTT0=
EXTT1=
EXTT2=
EXTT3=
EXTT4=
EXTT5=
EXTT6=
EXTT7=
EXTT8=
EXTT9=
EXTT10=
EXTT11=
EXTT12=
EXTT13=
PLAYORDER=
